<svg xmlns="http://www.w3.org/2000/svg" style="enable-background:new 0 0 1920 640" viewBox="0 0 1920 640" preserveAspectRatio="none meet">
  <linearGradient id="a" x1="960" x2="960" y1="640" y2="0" gradientUnits="userSpaceOnUse">
    <stop offset=".1" style="stop-color:#e10600"/>
    <stop offset=".294" style="stop-color:#e9390c"/>
    <stop offset=".472" style="stop-color:#f06116"/>
    <stop offset=".614" style="stop-color:#f4791c"/>
    <stop offset=".7" style="stop-color:#f5821e"/>
  </linearGradient>
  <path d="M1301.4 222.5c-45.8 4.7-76 24-118.7 58.9-51.9 42.5-102.5 96.4-189.7 133.5-32.4 13.8-98.7 36-208.9 14.4-106.7-20.9-167.5-54-167.5-54 42.7 18.9 107.7 40.7 167.9 50.7 71.1 11.7 131.3 9 202.8-22.3s145.3-113.5 195.5-148.1c50.1-34.6 118.6-33.1 118.6-33.1zm-936.6 23.9c71.8 36.3 201.2 103.5 254.6 123.7 100.8 38.1 156.8 48.3 239.2 34.8 82.4-13.5 133-76.6 168.4-106.7 35.2-30 76.5-79.7 203.1-79.8-22.2 2.5-47.9 7.3-72.1 16.4-60.1 22.8-91.7 61.6-132.7 95.9-41 34.3-67.2 62-134.5 79.4C830 426 769 419.5 769 419.5c122.2 17.7 198.8-8 262.6-64.6 63.7-56.6 116.3-108.1 171.6-124.3 26.1-7.6 47.5-11.2 62.4-12.9 7.7-.4 15.3-.9 22.7-1.5h.1c134.6-11.1 230.1-60.6 246.1-71.8 0 0-93.7 48-226.3 54.9-76.9 4-126.2 2.6-171.9 15.2-59.5 14.9-102.5 33.8-164.2 36.1-68.4 2.6-130.3-13.6-195.5-49.9s-125.8-73.1-147.3-86.6-42.6-25.7-57.4-32c0 0 25.6 13.4 55.2 34.6 29.6 21.3 93 60.9 145.8 92.3 29.2 17.4 67.5 35 113.1 44.9 36.8 8 78.3 11 123.6 4.8 0 0-32.4 17-81.7 50.7-41.1 28.1-75.1 57.6-142.1 69.3-67.1 11.7-121.6-5.3-198.3-38.3s-157.6-91.4-202-118.5c-44.4-27.1-116.1-68.4-182.7-104.9S58.3 56.8 0 72v3s40-2.6 84.5 10.5c44.6 13.1 70.1 26 113.2 47.8 43.1 21.8 119.4 64.7 182.9 100.4 88.5 49.9 120.9 72.1 205.7 113.5s148.4 46.3 205.2 43.7c56.8-2.6 110.3-41.3 145.4-69.9 37.4-30.5 59.2-48.3 90.5-64.3 21.9-11.2 46.9-19.5 64.1-24.6-7.5 3.9-15.2 8.3-23 13.4-49.1 31.6-73.4 58.1-112.5 87.3-39 29.2-75.4 62.4-155.2 68.7s-144.1-19.9-207.2-45.6c-63.2-25.7-154.8-80.5-226.8-117.6-72-37.2-171.2-92.2-232.4-118.6C73.1 93.3 30.5 84.6 0 82.2v10.1s59.8 8.3 127.9 39.1c68 30.8 165.1 78.7 236.9 115zm1142-83.7s51.6-23 118.7-47.3c30.5-11.1 78.8-26.1 124.1-41 112.6-37 170.4-57.7 170.4-57.7V8.1s-79.1 17-188.8 53.8c-109.8 36.7-224.4 100.8-224.4 100.8zm212.1-115.6c-102.5 42.5-140.7 71.2-140.7 71.2s55.4-32.2 169.1-73.4C1860.8 3.7 1920 2 1920 2V0c-36.7 1.4-98.7 4.6-201.1 47.1zM248.6 121.4c116.4 65.8 186 114.8 268.5 170 70.5 47.1 158.6 81.4 219.7 78.7 81.5-3.6 113.9-26.3 154.7-51.1 40.8-24.8 79.2-46.1 79.2-46.1s-52.7 13.4-132.4-19.7-120.4-64.4-188.6-113.3c-68.2-48.9-106.5-70.6-141.3-78 0 0 40.1 10.7 136.7 86.4C735 218.4 774.4 240.8 830 263.7c53.5 22 101.6 20 116.8 18.6-19.7 7.7-43.3 12.8-97.5.3-70.3-16.2-126.4-55.8-175.9-95.4-49.5-39.6-93.8-76.6-133.8-101.9-40-25.3-63-31.4-95.6-36.8 0 0 44.7 11.6 90.3 46.6 45.6 35 81.5 65.6 130.3 105.6s96.4 73.4 173.3 90.7c27.2 6.1 62.9 10 85.9 4.7-20.1 10.5-44.2 23.1-73 36.3-55.8 25.6-128.4 42.7-210.2 11.1-81.8-31.6-134.3-66.4-202.9-118.1S289.2 129.7 258 111.7c-31-18-72.5-42.6-113.3-49.9-40.7-7.3-76.9.4-76.9.4 55.4-.5 87.1 6.2 180.8 59.2zm7.2-34.1c54.1 28.7 124 74.4 153.6 95.4 29.6 21.1 96.6 72.5 130 95.5 33.3 23 127.5 77.2 215.4 69.3 87.9-7.9 134.8-39.3 134.8-39.3-75-5.4-155.9-29.7-230.1-89.4S566.6 137 499.8 87.5C433 37.9 374.4 41.9 374.4 41.9c20.6 3.8 68.8 20.2 116.4 58.1s77.6 65.2 103.6 88.2 80.8 75.4 158.8 103.2c32.5 11.6 61.6 16.3 84.5 18.2 23.3 1.9 35.8 1.9 41.8 1.6-21.3 11-75.8 28.4-129.9 27.6-85.3-1.3-143-32.4-195-68.6s-71.3-52.9-128.7-98.7c-36.2-28.9-93.1-67.3-160.4-100.4-72.8-35.9-126.4-18.3-126.4-18.3 27.8-2.2 62.6 5.8 116.7 34.5zm352.5 198.4c46.5 30 113.1 49.7 169.4 45.6s79.2-14.7 79.2-14.7-49.8 3.7-119-17.4c-69.2-21.2-115.8-63.9-156.8-98.5-41-34.6-90.2-81.4-159.8-126.4-69.6-45-126.2-34.4-126.2-34.4 57.4 5.8 129 48 204.9 116.2S628.3 267 694.7 296.4C761 325.9 837.1 320 837.1 320c-33.4 6.2-73.7 7.7-115.2-2.1-36.3-8.6-72.2-24.6-100.5-42.2-60.7-37.7-122-94.2-145.8-114.2-23.8-20.1-56.6-48.4-129.4-90-72.8-41.7-130.8-27.6-130.8-27.6 65.4 1.5 165.4 63.6 224.6 114.3s121.8 97.5 168.3 127.5zm377.9-114.5c-48.9 19.8-89.5 27.3-172.5 16-39-5.3-87.8-21.8-112.2-34.3 0 0 56.1 39.9 140.7 66.6 82.9 26.2 133.6 26 219.5 2.8 49-13.2 70.5-26.8 110.9-36.2 40.4-9.4 53.2-5.7 92.4-4.4 39.2 1.3 90.6-1.1 180.1-19 80.9-16.2 117-36.9 117-36.9s-50.1 17.9-116.2 26-122.1 12.4-172.9 10.9c-57.4-1.7-80.8-8.3-122.6 9.8-37.1 16-61.8 25.1-96 37.2-34.2 12.1-77.1 22.6-139.8 17.7-23.9-1.9-46.9-6.5-71.1-13.5-39.2-11.3-85.4-31-122.1-50.3 2.4 1.3 27.8 13.7 92.3 27.7 68.1 14.8 132.3 10.9 180.5-6.9 46.9-17.3 74.6-36.8 100.2-53.2 24.4-15.7 52.2-30.7 86.9-21.7s64.8 12.2 112.8 16.3c51.1 4.4 103 2.9 103 2.9s-59.7-.8-101.5-5.7-85.4-10.9-116.9-19.7-50.7-13.6-92.5 9.7c-41.9 23.3-57.5 41-100 58.2zm369.8-35.5c-81.7-2-116.2-7.4-158.8-13.4-42.6-6-80.5 20.7-124.1 44-43.7 23.3-76 37.8-144.8 42.7-68.8 4.9-159.9-26.6-159.9-26.6s104.4 45.3 184.2 35.3c85.1-10.7 116.6-30.3 160-50.1 43.4-19.8 60.3-31.1 100.8-27.6s71 5 158.7 4.8c87.7-.2 199.7-25 199.7-25s-125.3 18.1-215.8 15.9zm-478.9 16.8c-42.5 9.5-82.5 12.6-127.1 6.1s-66-14.2-66-14.2 28.1 9.9 68.9 24.5 85.2 18.3 144.7 12.1c59.5-6.3 98.3-32.3 131.1-55.2 32.8-22.9 67.3-42.4 106.1-36.9 0 0-14.2-8.2-41.9-5-27.7 3.2-48.7 16.1-83.2 36s-65 40.3-113.4 50.3c-48.4 9.9-111.1 6.4-166.3-11.6 0 0 52 15 114.4 9.1 62.4-5.9 114.2-33.1 147.4-52.9C1025 95 1051.6 82 1085 79.1c0 0-34.6-4.5-77.8 16.8-43.3 21.3-87.5 47.2-130.1 56.6zm12.4-13.3c35.8-14 60.3-26.3 86.7-37.5 26.9-11.5 38.3-15.7 57.6-20.4 0 0-24.6 2.2-56.9 15.1s-49.7 21.9-92.3 36.4-92.4 23.2-149.7 13.9c-57.3-9.3-94.8-29.9-94.8-29.9s26 22.1 92.7 34.4c66.7 12.2 120.9 1.9 156.7-12zm-87.7 5.2C852.2 141 933 110.3 965 97.1c0 0-29.3 8.8-80.7 24.4-51.4 15.6-97.2 24.6-181.1 12.5 0 0 48.2 13.8 98.6 10.4zm600.7 62.7c145.8-35.5 156.2-33.8 250-55 96.5-21.8 127.7-36.3 171.8-55 44.2-18.7 95.6-46.4 95.6-46.4V32.5S1789 95 1645.8 131.4c-143 36.3-243.3 75.7-243.3 75.7zm127.9-11.9c-100.2 7.5-168 24.7-168 24.7 66.1-6.9 84.9-6.1 172-5.1s163.6-2.1 241.8-30.8c78.2-28.6 143.8-77.5 143.8-77.5V76.1s-77.7 48.3-146.4 73.8-142.9 37.8-243.2 45.3zm-255.8 50.3c-59.8 29.4-96.7 72.7-156.6 114.1s-104.4 65.5-198.1 81.7c-93.7 16.3-221.4-27.6-283.2-53.4C575 362 470.2 305.6 396.5 268.6c-73.7-37-132.7-64.7-182.7-88.1-50-23.4-112.2-51.9-156.6-63.3 0 0 44.8 15.8 117.7 50.8 91.5 43.9 152.5 71.4 209.1 99.4 89.4 44.2 92.2 46.2 158.2 78.4 66.1 32.2 122.2 59.8 197.5 80.2s147.2 31.7 215.4 17c68.1-14.7 134.5-45.7 176.1-74.9s96.4-74.2 147.6-105.3c51.1-31.1 87.2-36.4 121.6-37.1-.1-.1-66-9.6-125.8 19.8zM609.2 387.8c-19.8-8.6-41.7-18.8-64.1-29.5 0 0-54.5-24.8-109.2-43.8-54.7-19-88.2-37.9-127.8-60-39.5-22.1-119-67-154.2-84.3-29.7-13.3-52.2-23-52.2-23 29.8 14.2 99.4 53.1 165.1 92.5 45.2 27 96.6 56.9 136.1 70.2s91.5 34.5 149.3 60.5c57.8 26 97.5 54.4 198.8 81.7 101.3 27.3 193.6 19.1 266.5-4.9s106.9-43.5 164-74.5c57.1-31.1 119.9-75.7 166.5-97.6 46.6-21.9 103.5-43.4 179.4-41.8 75.8 1.6 141.1 14.8 141.1 14.8-50.9-8.8-143-18.2-220.5 2.1-77.5 20.4-104.1 39.6-165.4 74s-141.1 87-263.2 128c-58.2 19.5-169.1 43.5-277.4 10.7-108.4-32.8-149.8-59.7-201.1-85.3-51.3-25.6-80.7-37.9-142.1-60.6-61.4-22.7-118-55.2-217.4-118.7s-168-88.2-168-88.2C74 123.9 308.4 236.7 390 276.5c56.5 27.5 123.1 61.2 187.2 91.6 73.4 34.8 143.9 59.5 183.6 70 89.3 23.6 164.9 28.7 263.8-6.1 98.9-34.9 133.1-66.5 198.2-110.9s110.8-76.7 171.2-88c60.4-11.3 108.7-3.6 108.7-3.6s-58.3-.6-102.4 12.2c-44.2 12.8-97.3 34.2-159.9 82.6-62.6 48.4-175.8 103.2-219.5 115.8-43.7 12.5-114.7 38.2-224.2 11.7-81.9-19.9-120.2-34.7-187.5-64zm-115.8-54.7c-37.5-18.5-73.5-36.5-101.2-49.6-57-26.9-74.4-33.9-144.2-69.2-18.6-9.4-40.5-19.8-61.7-29.5C216 200.5 280.7 234.5 314 252c44 23.1 83.7 45 122.4 58.8 18 6.4 38.6 14.7 57 22.3zm1147.8-93.7s26.3 4.1 59 10 68.7 5.2 113.2-12.9 91.3-50.1 106.6-65.1V143s-47.2 40-108.8 65.5c-58.6 24.2-92.4 30.7-170 30.9zm152.5 35.3c-30-6.7-62.9-13.5-96-19.3-112.3-19.6-185.4-12.6-269.5 10.9s-133 57.4-217.2 104.9c-80.1 45.2-162.5 87.6-269.4 107.4-106.9 19.8-149.8 16.7-242.4-10.6S568 406 491.9 370.1c-76.1-35.9-127-49.4-165.9-69.8-38.9-20.4-87.6-46.7-141.5-85.9S33.3 122.5 0 110.1v7.5s95.1 49.3 177.2 111.8c82 62.4 120.3 73 172.4 94.3 52.1 21.3 99.1 41.4 161.7 81.7 62.6 40.3 94.9 61.5 190.3 85.9 118.4 30.3 265.8-6.6 362.5-42.7 91.8-34.2 208.6-111 308.1-154 99.6-43 233-50.7 328.1-33.3 95.6 17.5 219.8 49.2 219.8 49.2v-4.3s-20.8-5.9-53.5-14.2c12.2-4.8 38.4-15.8 53.5-26.4v-47.7c-.1.2-41 40.7-126.4 56.8zm-333 3.1c-87.1 19.7-159.3 60.7-205.4 83.2-63.1 30.9-110.3 54.5-160.4 77.3s-110.3 44.2-180.5 61.9c-70.2 17.7-153 25.4-239.2 5.6-86.3-19.8-135.3-48.7-180.6-77.7-48.8-31.1-131.2-82.3-181.1-100.2-49.9-17.9-70.2-21.9-119.2-56.2C145.2 237.5 43.5 160.5 0 136.9v28.4s46.7 33.9 99.8 75c53.1 41.1 89 64.5 129.3 78.7 40.3 14.2 72.1 25.2 112.6 51.1 40.5 25.8 77.2 51.5 130.4 84s101.6 57.7 191.3 73.9 184.3-3.1 248.3-20.3 147.4-50.8 184.7-67.9c43.1-19.7 126.4-60.1 185-88.3 58.6-28.2 121.7-52 198.6-67.3 77-15.2 164-10 228-2.3 79.2 9.5 212.1 46.8 212.1 46.8v-11.2s-117.6-33.7-206.6-46c-89.1-12.3-165.8-13.3-252.8 6.3zm-46.8 31.3c-70.6 15.3-132.3 47-178.8 68.4-66.6 30.7-133.7 64.1-226.8 102.2s-196 70.9-309.5 73.2-200-37.1-271.1-81.1c-71.2-43.9-120.4-84.5-162-107.9-41.6-23.4-65.4-31-98.9-42.9-33.5-11.9-76.3-43.5-94.9-58C53.2 248.6 0 206.9 0 206.9v52.7s20.7 14.8 53.7 38.9c33 24.1 64.2 36.2 95.1 45.9s67.4 32.7 99.7 55.7 67.2 50.5 146.9 101.1c79.7 50.6 136.8 62 220.1 71.8s181.8-14.8 243.3-34 93.3-30.3 160.7-60.5c67.4-30.2 136.7-62.3 180.8-82.2 44.1-19.8 117.8-51.8 180.5-69 62.6-17.2 135-26.5 206-25.2 71 1.3 156.6 15.1 227.9 35 71.4 19.9 105.3 30 105.3 30v-21.3s-107.1-35-229.8-52.1c-122.6-17.1-205.7 0-276.3 15.4zM1288.4 366c-100.3 36-147.7 62-208 88-60.4 26-171.9 85.2-306.3 120.4s-235 31.9-346.2-10.9c-111.1-42.9-186.7-114.3-233-145.5-46.3-31.2-80-52.6-116.6-64C41.8 342.6 0 314.4 0 314.4v49.7s54.3 17.3 95.5 44.7c41.2 27.4 116 81.7 180.1 123.1 64.1 41.5 145.6 76.7 278.8 86.1s293.6-56.2 349.1-80.9c55.5-24.7 126.6-57.4 188.6-85.3 62-27.8 123.5-58.8 207.3-82.9s180.2-36.9 269.2-29.6c89.1 7.3 172.3 29 229.3 47.3 57 18.4 122.2 39.9 122.2 39.9v-32.1s-135.5-53.1-284.6-70.3c-149.1-17.2-246.8 5.9-347.1 41.9zm206.6-7.7c-111.9-3.1-209.5 18.9-294.3 51.4-84.8 32.5-200.8 88.9-260.1 116.7s-163 76.8-279.1 96.3c-116.1 19.5-205.9 11.4-308.5-17.2-102.5-28.6-177-80-243.6-129.2C42.8 427 0 409.8 0 409.8v51.7s28.9 17.5 65.4 41 82.2 49.1 160.2 86.3S399.5 640 432.9 640h177.3c109.4-13.4 239.6-66.9 329-108.3 71.5-33.1 152.8-79.9 277.4-117.9 124.6-38 195.6-37.7 274.2-31.2 78.6 6.5 159.6 25.2 250.2 57.7 90.6 32.6 178.9 67.8 178.9 67.8v-42.6s-58.5-25.5-147-52.6c-88.3-27-166-51.5-277.9-54.6zM0 548.7C76.3 590.6 249.1 640 249.1 640h77C151.9 605.7 0 512.2 0 512.2v36.5zm0 40.6L138 640h53s-78.5-22.2-191-66.9v16.2zm0 31.4L47.7 640h44.7L0 605.5v15.2zm1478.5-210.1c-114.3-18.2-209.9 1.8-299.9 27.5-90 25.7-245 104.4-337.6 141.4-74.9 29.8-189.2 60.5-189.2 60.5h22S752 620.7 841 585.9c109.6-42.9 243.7-109.6 338.2-129.1 80.6-16.7 162.9-32.5 282.8-7.1s161.8 39.7 272.2 84c110.4 44.4 185.7 58.7 185.7 58.7v-40.6s-33-7-126.3-45.4-200.8-77.6-315.1-95.8zm-177.1 68c-148.2-4.5-247.8 30.5-379.1 82.5S707.8 640 707.8 640h34.3s77.1-24 183.9-65.1c106.8-41.1 253.7-60.7 337.4-53.2s147.2 14.5 275.9 53.5S1831 640 1831 640h89v-14.2c-87.5-12.9-149.7-33-254.4-65.2-104.7-32.3-216-77.5-364.2-82zM1022 580.9C907.8 598.5 795 640 795 640h114.2s61.8-20 188.5-20 241.6 20 241.6 20h297.6s-108.1-13.2-241.8-44.6c-133.7-31.3-258.9-32-373.1-14.5z" style="fill:url(#a)"/>
</svg>
